<svg width="500" height="565" viewBox="0 0 500 565" fill="none" xmlns="http://www.w3.org/2000/svg">
<path d="M498.428 218.905C498.828 218.719 499.343 218.508 500 218.312V403.651C500 417.981 492.355 431.222 479.946 438.386L270.054 559.567C257.645 566.732 242.355 566.732 229.946 559.567L20.0542 438.386C7.64462 431.222 0 417.981 0 403.651V288.298C3.23486 289.562 8.34164 293.718 16.0619 307.648C20.1647 315.05 23.761 322.719 27.5029 330.307C31.5003 338.413 36.2452 347.748 41.9034 356.352C53.1998 373.53 72.3923 393.978 104.33 393.978C139.977 393.978 158.95 366.105 168.932 345.938C180.201 323.17 186.903 298.534 194.911 274.512C203.106 249.927 211.124 229.725 221.446 215.727C226.188 209.296 230.874 204.876 235.827 202.038C240.705 199.243 246.213 197.769 252.973 197.769C271.195 197.769 282.403 202.997 290.749 209.795C300.019 217.346 307.525 228.262 315.656 242.757C324.322 258.205 331.922 274.387 342.797 288.467C354.964 304.221 373.525 319.656 401.616 319.656C432.07 319.656 450.036 300.354 460.359 284.01C469.398 269.697 475.229 253.764 482.925 238.755C489.767 225.414 494.668 220.658 498.428 218.905Z" fill="#111111"/>
<path d="M500 161.289V179.144C484.091 180.492 472.363 187.966 463.328 198.277C453.407 209.601 446.609 224.515 440.544 237.82L440.301 238.355C434.7 250.64 429.725 261.444 423.433 269.306C417.424 276.814 410.763 280.959 401.616 280.959C391.37 280.959 383.711 276.571 376.652 268.705C369.3 260.511 363.134 249.148 356.013 235.924L355.77 235.473C346.802 218.816 336.511 199.704 320.963 184.886C304.933 169.611 283.55 159.072 252.973 159.072C221.615 159.072 200.682 176.215 185.771 199.335C171.193 221.939 161.728 251.2 153.166 277.672L152.986 278.228C145.917 300.082 139.498 319.82 131.401 334.175C123.305 348.529 114.818 355.28 104.33 355.28C94.106 355.28 86.3899 350.528 79.371 342.086C72.1067 333.35 66.2351 321.438 59.7899 308.257L59.5323 307.73C52.8344 294.03 45.4839 278.996 35.467 267.731C26.4769 257.62 15.0774 250.244 0 249.061V161.289C0 146.96 7.64464 133.719 20.0542 126.554L229.946 5.37351C242.355 -1.79118 257.645 -1.79117 270.054 5.37352L479.946 126.554C492.355 133.719 500 146.96 500 161.289Z" fill="#E7B400"/>
</svg>
